<svg id="Suitcase" xmlns="http://www.w3.org/2000/svg" width="464.318" height="170.031" viewBox="0 0 464.318 170.031">
  <rect id="Rectangle_1" data-name="Rectangle 1" width="170.705" height="170.031" rx="20" fill="#1e3ae4"/>
  <path id="Intersection_1" data-name="Intersection 1" d="M18.391,113.534A20,20,0,0,1,0,93.6V71.21c.016-9.522,0-39.859,0-39.859L31.484,0,141.8,77.748,104,113.534Z" transform="translate(0 56.45)" fill="#1228aa"/>
  <path id="Path_11" data-name="Path 11" d="M108.052,24.959H90.662V8.395a6.551,6.551,0,0,0-6.549-6.549H33.765a6.551,6.551,0,0,0-6.549,6.549V24.959H9.823A9.826,9.826,0,0,0,0,34.782v63.03a9.822,9.822,0,0,0,9.823,9.823h98.229a9.82,9.82,0,0,0,9.823-9.823V34.782A9.824,9.824,0,0,0,108.052,24.959ZM40.313,14.95H77.565V24.969H40.313Z" transform="translate(26.415 30.275)" fill="#fff"/>
  <g id="Group_25" data-name="Group 25" transform="translate(26.388 27.562)">
    <path id="path554" d="M2526.96-3386.505c-.17-.013-9.674.073-9.667,0l30.169-30.682a3.559,3.559,0,0,1,5.031,0,3.558,3.558,0,0,1,0,5.031Z" transform="translate(-2503.195 3496.787)" fill="#9ba9ff"/>
    <path id="path554-2" data-name="path554" d="M2552.76-3404.435c-.018,0-10.391.073-10.384,0l13.058-12.752a3.559,3.559,0,0,1,5.031,0,3.558,3.558,0,0,1,0,5.031Z" transform="translate(-2511.42 3514.759)" fill="#9ba9ff"/>
    <path id="path554-3" data-name="path554" d="M2508.527-3374.984a7.023,7.023,0,0,0,3.1,1.946l64.061-63.557a3.465,3.465,0,0,0,0-4.945,3.687,3.687,0,0,0-5.129,0l-63.955,63.891A6.671,6.671,0,0,0,2508.527-3374.984Zm79.936-107.6" transform="translate(-2505.485 3482.582)" fill="#5c73ff"/>
    <path id="path554-4" data-name="path554" d="M2496.172-3409.53c0-.079-.1-9.5,0-9.561l25.7-25.822a3.556,3.556,0,0,1,5.029,0,3.557,3.557,0,0,1,0,5.03Z" transform="translate(-2496.127 3489.795)" fill="#0024ff"/>
    <path id="path554-5" data-name="path554" d="M2584.384-3419.974l28.355-28.376a3.567,3.567,0,0,0,0-5.03,3.566,3.566,0,0,0-5.03,0l-23.325,23.18C2584.392-3430.193,2584.414-3419.989,2584.384-3419.974Zm29.382-62.608" transform="translate(-2584.384 3518.241)" fill="#3350ff"/>
  </g>
  <path id="Path_26" data-name="Path 26" d="M43.417-106.653a24.987,24.987,0,0,1,12.164,2.919,20.78,20.78,0,0,1,8.434,8.65A28.865,28.865,0,0,1,67.1-81.243V-46.1H54.878V-79.4q0-8-4-12.273T39.956-95.948q-6.92,0-10.975,4.271T24.927-79.4v33.3H12.6v-80.015H24.927V-98.76a20.669,20.669,0,0,1,7.947-5.839A26.571,26.571,0,0,1,43.417-106.653Zm42.386-6.92a7.636,7.636,0,0,1-5.623-2.271,7.636,7.636,0,0,1-2.271-5.623,7.636,7.636,0,0,1,2.271-5.623A7.636,7.636,0,0,1,85.8-129.36a7.508,7.508,0,0,1,5.515,2.271,7.636,7.636,0,0,1,2.271,5.623,7.636,7.636,0,0,1-2.271,5.623A7.508,7.508,0,0,1,85.8-113.573Zm6.055,7.893V-46.1H79.531V-105.68Zm25.3,8.65a19.359,19.359,0,0,1,7.191-7.082A21.268,21.268,0,0,1,135-106.653v12.759h-3.136q-7.245,0-10.975,3.676t-3.73,12.759V-46.1H104.833V-105.68H117.16ZM196.634-77.35A38.538,38.538,0,0,1,196.2-71.3H150.68a16.532,16.532,0,0,0,5.3,11.462,16.725,16.725,0,0,0,11.678,4.325q9.948,0,14.057-8.326h13.3a26.837,26.837,0,0,1-9.786,13.462q-7.082,5.244-17.571,5.244a30.428,30.428,0,0,1-15.3-3.839,27.311,27.311,0,0,1-10.6-10.813,32.985,32.985,0,0,1-3.839-16.165,33.759,33.759,0,0,1,3.73-16.165,26.235,26.235,0,0,1,10.488-10.759,31.214,31.214,0,0,1,15.516-3.784,30.344,30.344,0,0,1,15.03,3.676,25.978,25.978,0,0,1,10.272,10.326A31.1,31.1,0,0,1,196.634-77.35Zm-12.867-3.893A14.028,14.028,0,0,0,178.9-92.164a17.4,17.4,0,0,0-11.786-4.109,15.831,15.831,0,0,0-10.921,4.055,16.945,16.945,0,0,0-5.406,10.975Zm47.576,36.115A30.512,30.512,0,0,1,216.1-48.967a27.574,27.574,0,0,1-10.7-10.813A32.616,32.616,0,0,1,201.5-75.945a31.991,31.991,0,0,1,4-16.111,27.634,27.634,0,0,1,10.921-10.813,31.69,31.69,0,0,1,15.462-3.784,31.69,31.69,0,0,1,15.462,3.784,27.634,27.634,0,0,1,10.921,10.813,31.991,31.991,0,0,1,4,16.111,31.327,31.327,0,0,1-4.109,16.111,28.451,28.451,0,0,1-11.191,10.867A32.256,32.256,0,0,1,231.343-45.128Zm0-10.7a18.343,18.343,0,0,0,8.921-2.271,17.3,17.3,0,0,0,6.758-6.812,21.9,21.9,0,0,0,2.6-11.029A22.356,22.356,0,0,0,247.13-86.92a16.789,16.789,0,0,0-6.6-6.758,18.038,18.038,0,0,0-8.867-2.271,17.737,17.737,0,0,0-8.812,2.271,16.208,16.208,0,0,0-6.434,6.758,23.192,23.192,0,0,0-2.379,10.975q0,9.623,4.92,14.868A16.257,16.257,0,0,0,231.343-55.833Z" transform="translate(202.05 172.259)" fill="#262626"/>
</svg>
