<svg xmlns="http://www.w3.org/2000/svg" width="469.988" height="185.271" viewBox="0 0 469.988 185.271">
  <g id="Suitecase_2" data-name="Suitecase 2" transform="translate(4 0)">
    <g id="Group_28" data-name="Group 28" transform="translate(4.045)">
      <path id="path554" d="M2530.56-3374.689c-.233-.018-13.277.1-13.267,0l41.406-42.11a4.884,4.884,0,0,1,6.9,0,4.883,4.883,0,0,1,0,6.9Z" transform="translate(-2497.943 3526.047)" fill="#9ba9ff"/>
      <path id="path554-2" data-name="path554" d="M2556.627-3399.3c-.024,0-14.261.1-14.251,0l17.921-17.5a4.883,4.883,0,0,1,6.9,0,4.883,4.883,0,0,1,0,6.9Z" transform="translate(-2499.89 3550.713)" fill="#9ba9ff"/>
      <path id="path554-3" data-name="path554" d="M2509.247-3334.908a9.647,9.647,0,0,0,4.25,2.67l87.921-87.229a4.756,4.756,0,0,0,0-6.787,5.061,5.061,0,0,0-7.039,0l-87.776,87.688C2506.488-3338.4,2507.351-3336.8,2509.247-3334.908Zm109.708-147.675" transform="translate(-2505.072 3482.582)" fill="#5c73ff"/>
      <path id="path554-4" data-name="path554" d="M2496.189-3395.963c0-.107-.14-13.043,0-13.122l35.271-35.439a4.881,4.881,0,0,1,6.9,0,4.882,4.882,0,0,1,0,6.9Z" transform="translate(-2496.127 3506.124)" fill="#0024ff"/>
      <path id="path554-5" data-name="path554" d="M2584.384-3396.655,2623.3-3435.6a4.9,4.9,0,0,0,0-6.9,4.894,4.894,0,0,0-6.9,0l-32.013,31.813C2584.4-3410.68,2584.426-3396.675,2584.384-3396.655Zm40.326-85.927" transform="translate(-2584.384 3531.522)" fill="#3350ff"/>
    </g>
    <rect id="Rectangle_4" data-name="Rectangle 4" width="170.705" height="116.4" rx="20" transform="translate(0 39.172)" fill="rgba(222,222,222,0)" stroke="#2d2d2d" stroke-width="8"/>
    <rect id="Rectangle_5" data-name="Rectangle 5" width="65.152" height="20.501" rx="5" transform="translate(52.777 18.671)" fill="rgba(222,222,222,0)" stroke="#2d2d2d" stroke-width="8"/>
    <circle id="Ellipse_1" data-name="Ellipse 1" cx="54.708" cy="54.708" r="54.708" transform="translate(73.051 70.502)" fill="#fff"/>
    <g id="Ellipse_2" data-name="Ellipse 2" transform="translate(82.061 79.512)" fill="rgba(255,255,255,0)" stroke="#2d2d2d" stroke-width="8">
      <circle cx="46.341" cy="46.341" r="46.341" stroke="none"/>
      <circle cx="46.341" cy="46.341" r="42.341" fill="none"/>
    </g>
    <rect id="Rectangle_6" data-name="Rectangle 6" width="32.14" height="3.767" rx="1.883" transform="translate(163.071 154.224) rotate(45)" fill="red" stroke="#2d2d2d" stroke-width="8"/>
    <path id="Path_22" data-name="Path 22" d="M41.572,2.057A30.543,30.543,0,0,0,3.981,45.618,3.3,3.3,0,0,0,9.72,42.352,23.944,23.944,0,0,1,39.184,8.213a3.3,3.3,0,0,0,2.388-6.156Z" transform="translate(156.6 91.779) rotate(85)" fill="rgba(0,0,0,0.21)"/>
    <path id="Path_29" data-name="Path 29" d="M43.417-106.653a24.987,24.987,0,0,1,12.164,2.919,20.78,20.78,0,0,1,8.434,8.65A28.865,28.865,0,0,1,67.1-81.243V-46.1H54.878V-79.4q0-8-4-12.273T39.956-95.948q-6.92,0-10.975,4.271T24.927-79.4v33.3H12.6v-80.015H24.927V-98.76a20.669,20.669,0,0,1,7.947-5.839A26.571,26.571,0,0,1,43.417-106.653Zm42.386-6.92a7.636,7.636,0,0,1-5.623-2.271,7.636,7.636,0,0,1-2.271-5.623,7.636,7.636,0,0,1,2.271-5.623A7.636,7.636,0,0,1,85.8-129.36a7.508,7.508,0,0,1,5.515,2.271,7.636,7.636,0,0,1,2.271,5.623,7.636,7.636,0,0,1-2.271,5.623A7.508,7.508,0,0,1,85.8-113.573Zm6.055,7.893V-46.1H79.531V-105.68Zm25.3,8.65a19.359,19.359,0,0,1,7.191-7.082A21.268,21.268,0,0,1,135-106.653v12.759h-3.136q-7.245,0-10.975,3.676t-3.73,12.759V-46.1H104.833V-105.68H117.16ZM196.634-77.35A38.538,38.538,0,0,1,196.2-71.3H150.68a16.532,16.532,0,0,0,5.3,11.462,16.725,16.725,0,0,0,11.678,4.325q9.948,0,14.057-8.326h13.3a26.837,26.837,0,0,1-9.786,13.462q-7.082,5.244-17.571,5.244a30.428,30.428,0,0,1-15.3-3.839,27.311,27.311,0,0,1-10.6-10.813,32.985,32.985,0,0,1-3.839-16.165,33.759,33.759,0,0,1,3.73-16.165,26.235,26.235,0,0,1,10.488-10.759,31.214,31.214,0,0,1,15.516-3.784,30.344,30.344,0,0,1,15.03,3.676,25.978,25.978,0,0,1,10.272,10.326A31.1,31.1,0,0,1,196.634-77.35Zm-12.867-3.893A14.028,14.028,0,0,0,178.9-92.164a17.4,17.4,0,0,0-11.786-4.109,15.831,15.831,0,0,0-10.921,4.055,16.945,16.945,0,0,0-5.406,10.975Zm47.576,36.115A30.512,30.512,0,0,1,216.1-48.967a27.574,27.574,0,0,1-10.7-10.813A32.616,32.616,0,0,1,201.5-75.945a31.991,31.991,0,0,1,4-16.111,27.634,27.634,0,0,1,10.921-10.813,31.69,31.69,0,0,1,15.462-3.784,31.69,31.69,0,0,1,15.462,3.784,27.634,27.634,0,0,1,10.921,10.813,31.991,31.991,0,0,1,4,16.111,31.327,31.327,0,0,1-4.109,16.111,28.451,28.451,0,0,1-11.191,10.867A32.256,32.256,0,0,1,231.343-45.128Zm0-10.7a18.343,18.343,0,0,0,8.921-2.271,17.3,17.3,0,0,0,6.758-6.812,21.9,21.9,0,0,0,2.6-11.029A22.356,22.356,0,0,0,247.13-86.92a16.789,16.789,0,0,0-6.6-6.758,18.038,18.038,0,0,0-8.867-2.271,17.737,17.737,0,0,0-8.812,2.271,16.208,16.208,0,0,0-6.434,6.758,23.192,23.192,0,0,0-2.379,10.975q0,9.623,4.92,14.868A16.257,16.257,0,0,0,231.343-55.833Z" transform="translate(203.72 177.203)" fill="#262626"/>
  </g>
</svg>
