<svg id="Tie" xmlns="http://www.w3.org/2000/svg" width="464.318" height="141.233" viewBox="0 0 464.318 141.233">
  <path id="Rectangle" d="M140.705,116.4H123.012L101.479,23.98h-.153L105.527,0h35.178a29.975,29.975,0,0,1,30,30V86.4a29.976,29.976,0,0,1-30,30Zm-95.047,0H30a29.975,29.975,0,0,1-30-30V30A29.975,29.975,0,0,1,30,0H63.888c.88,4.334,4.266,23.052,4.409,23.846h-.044Z" transform="translate(0 0)" fill="#dedede"/>
  <g id="Tie-2" data-name="Tie" transform="translate(54.288 0)">
    <path id="path120" d="M1889.918-2807.526h-30.144l4.065,22.4a57.418,57.418,0,0,1,10.754-1.009,57,57,0,0,1,10.64,1" transform="translate(-1844.352 2807.526)" fill="#1e3ae4" fill-rule="evenodd"/>
    <path id="path122" d="M1881.833-2592.732l-6.818-30.637a52.235,52.235,0,0,0-10.477-1.051,53.5,53.5,0,0,0-10.576,1.053l-8.513,38.526,36.384-7.891" transform="translate(-1833.45 2652.265)" fill="#4660ff" stroke="#707070" stroke-width="0.133" fill-rule="evenodd"/>
    <path id="path124" d="M1858-2341.516l-5.041-22.666-39.508,8.566-5.513,24.958L1858-2341.516" transform="translate(-1802.782 2430.425)" fill="#788bff" stroke="#707070" stroke-width="0.133" fill-rule="evenodd"/>
    <path id="path126" d="M1779.636-2143.041l30.127,24.393,30.254-24.57-4.869-21.871-53.191,11.534-2.321,10.513" transform="translate(-1779.636 2259.88)" fill="#c3cbff" fill-rule="evenodd"/>
  </g>
  <path id="Path_28" data-name="Path 28" d="M43.417-106.653a24.987,24.987,0,0,1,12.164,2.919,20.78,20.78,0,0,1,8.434,8.65A28.865,28.865,0,0,1,67.1-81.243V-46.1H54.878V-79.4q0-8-4-12.273T39.956-95.948q-6.92,0-10.975,4.271T24.927-79.4v33.3H12.6v-80.015H24.927V-98.76a20.669,20.669,0,0,1,7.947-5.839A26.571,26.571,0,0,1,43.417-106.653Zm42.386-6.92a7.636,7.636,0,0,1-5.623-2.271,7.636,7.636,0,0,1-2.271-5.623,7.636,7.636,0,0,1,2.271-5.623A7.636,7.636,0,0,1,85.8-129.36a7.508,7.508,0,0,1,5.515,2.271,7.636,7.636,0,0,1,2.271,5.623,7.636,7.636,0,0,1-2.271,5.623A7.508,7.508,0,0,1,85.8-113.573Zm6.055,7.893V-46.1H79.531V-105.68Zm25.3,8.65a19.359,19.359,0,0,1,7.191-7.082A21.268,21.268,0,0,1,135-106.653v12.759h-3.136q-7.245,0-10.975,3.676t-3.73,12.759V-46.1H104.833V-105.68H117.16ZM196.634-77.35A38.538,38.538,0,0,1,196.2-71.3H150.68a16.532,16.532,0,0,0,5.3,11.462,16.725,16.725,0,0,0,11.678,4.325q9.948,0,14.057-8.326h13.3a26.837,26.837,0,0,1-9.786,13.462q-7.082,5.244-17.571,5.244a30.428,30.428,0,0,1-15.3-3.839,27.311,27.311,0,0,1-10.6-10.813,32.985,32.985,0,0,1-3.839-16.165,33.759,33.759,0,0,1,3.73-16.165,26.235,26.235,0,0,1,10.488-10.759,31.214,31.214,0,0,1,15.516-3.784,30.344,30.344,0,0,1,15.03,3.676,25.978,25.978,0,0,1,10.272,10.326A31.1,31.1,0,0,1,196.634-77.35Zm-12.867-3.893A14.028,14.028,0,0,0,178.9-92.164a17.4,17.4,0,0,0-11.786-4.109,15.831,15.831,0,0,0-10.921,4.055,16.945,16.945,0,0,0-5.406,10.975Zm47.576,36.115A30.512,30.512,0,0,1,216.1-48.967a27.574,27.574,0,0,1-10.7-10.813A32.616,32.616,0,0,1,201.5-75.945a31.991,31.991,0,0,1,4-16.111,27.634,27.634,0,0,1,10.921-10.813,31.69,31.69,0,0,1,15.462-3.784,31.69,31.69,0,0,1,15.462,3.784,27.634,27.634,0,0,1,10.921,10.813,31.991,31.991,0,0,1,4,16.111,31.327,31.327,0,0,1-4.109,16.111,28.451,28.451,0,0,1-11.191,10.867A32.256,32.256,0,0,1,231.343-45.128Zm0-10.7a18.343,18.343,0,0,0,8.921-2.271,17.3,17.3,0,0,0,6.758-6.812,21.9,21.9,0,0,0,2.6-11.029A22.356,22.356,0,0,0,247.13-86.92a16.789,16.789,0,0,0-6.6-6.758,18.038,18.038,0,0,0-8.867-2.271,17.737,17.737,0,0,0-8.812,2.271,16.208,16.208,0,0,0-6.434,6.758,23.192,23.192,0,0,0-2.379,10.975q0,9.623,4.92,14.868A16.257,16.257,0,0,0,231.343-55.833Z" transform="translate(202.05 145.444)" fill="#262626"/>
</svg>
