<svg xmlns="http://www.w3.org/2000/svg" xmlns:xlink="http://www.w3.org/1999/xlink" width="517.023" height="170.805" viewBox="0 0 517.023 170.805">
  <defs>
    <linearGradient id="linear-gradient" x1="0.5" x2="0.5" y2="1" gradientUnits="objectBoundingBox">
      <stop offset="0" stop-color="#2a48fc"/>
      <stop offset="1" stop-color="#0024ff"/>
    </linearGradient>
  </defs>
  <g id="Zoom" transform="translate(0 0)">
    <g id="Man" transform="translate(130.816 38.738)">
      <path id="Union_1" data-name="Union 1" d="M20.725,94.854v-.232q.044-2.006,0-3.925V90.32a4.318,4.318,0,0,0-.029-.61,25.556,25.556,0,0,0-2.151-10.378,22.167,22.167,0,0,0-8.633-9.185C6.54,68.025,3.052,66.019,0,64.362a18.355,18.355,0,0,1,4.505-3.808c8.459-5.319,17.906-9.912,17.906-9.912L29.94,74.42l4.389-8.836c-7.732-10.755.523-11.308,2.005-11.308h.117c1.453,0,9.708.553,2.005,11.308l4.389,8.836,7.529-23.777s9.447,4.593,17.9,9.912c6.4,4.012,7.558,8.313,7.761,14.563v.523c.029,1.192.029,2.471-.029,3.808v-.465L59.558,97.494,36.334,110.631l-15.609,4.45ZM75.982,75v0Zm-53.358-24.6a.746.746,0,0,0,.4-.659V42.114a18.338,18.338,0,0,1-2.285-6.242c-.871-.071-2.026-1.3-3.274-5.676-1.579-5.63-.095-6.737,1.366-6.737-.777-3.3-2.732-14.722,5.794-19.927A4.588,4.588,0,0,1,23,.045s9.7,1.084,14.416.118c4.711-.99,9.752,2.709,10.553,6.265,0,0,9.516.047,5.818,17.007,1.484-.071,3.086.966,1.461,6.737-1.249,4.381-2.4,5.606-3.274,5.677a18.35,18.35,0,0,1-2.285,6.242v7.631a.7.7,0,0,0,.4.66c1.131.559-6.464.842-13.967.842C28.776,51.224,21.518,50.953,22.625,50.405Z" transform="translate(0 0)" fill="url(#linear-gradient)"/>
    </g>
    <g id="Woman" transform="translate(65.761 59.378)">
      <path id="Union_2" data-name="Union 2" d="M38.112,96.311,21.15,90.667C-.027,72.587-.027,71.308,0,70.116v-.523c.2-6.25,1.367-10.552,7.732-14.563,8.459-5.32,17.906-9.912,17.906-9.912L33.168,68.9l4.389-8.836c-7.732-10.755.523-11.307,2.005-11.307h.117c1.453,0,9.708.553,2.005,11.307L46.074,68.9,53.6,45.118S63.05,49.71,71.508,55.03c6.395,4.011,7.586,8.313,7.761,14.563v.523c.029,1.192.029,2.471,0,3.808V96.311ZM79.269,73.924Zm-40.191-31.7c-3.963-.021-7.8-.041-7.822,0-10.872.093-14.086-4.558-14.086-4.558s6.2-.093,5.829-16.477C22.608,4.8,30.155,2.094,32.975,1.029c8.2-3.12,12.312,1.849,12.312,1.849,9.49-.878,12.124,9.49,10.947,21.316C55.076,36.019,61.558,37.85,61.558,37.85,57.093,42.408,47.7,42.222,47.7,42.222c.01.021-.837.029-2.151.029C43.878,42.251,41.456,42.238,39.078,42.226Z" transform="translate(0 0)" fill="#001aba"/>
    </g>
    <path id="Lens" d="M1604.613-3119a84.922,84.922,0,0,0-60.048-104.008,84.922,84.922,0,0,0-104.008,60.05,84.558,84.558,0,0,0,4.338,56.264l-18.287,10.493a4.824,4.824,0,0,0-6.574-1.761l-31.256,18.106a9.365,9.365,0,0,0-3.417,12.753l4.229,7.325a9.36,9.36,0,0,0,12.752,3.416l31.254-18.106a4.832,4.832,0,0,0,1.763-6.574l18.212-10.45a84.565,84.565,0,0,0,47.033,32.542A84.922,84.922,0,0,0,1604.613-3119Zm-16.343-4.378a67.993,67.993,0,0,0-48.085-83.285,68,68,0,0,0-83.285,48.083,68,68,0,0,0,48.085,83.287,68,68,0,0,0,83.285-48.085" transform="translate(-1384.117 3225.926)" fill="#dedede" fill-rule="evenodd"/>
    <path id="Path_27" data-name="Path 27" d="M43.417-106.653a24.987,24.987,0,0,1,12.164,2.919,20.78,20.78,0,0,1,8.434,8.65A28.865,28.865,0,0,1,67.1-81.243V-46.1H54.878V-79.4q0-8-4-12.273T39.956-95.948q-6.92,0-10.975,4.271T24.927-79.4v33.3H12.6v-80.015H24.927V-98.76a20.669,20.669,0,0,1,7.947-5.839A26.571,26.571,0,0,1,43.417-106.653Zm42.386-6.92a7.636,7.636,0,0,1-5.623-2.271,7.636,7.636,0,0,1-2.271-5.623,7.636,7.636,0,0,1,2.271-5.623A7.636,7.636,0,0,1,85.8-129.36a7.508,7.508,0,0,1,5.515,2.271,7.636,7.636,0,0,1,2.271,5.623,7.636,7.636,0,0,1-2.271,5.623A7.508,7.508,0,0,1,85.8-113.573Zm6.055,7.893V-46.1H79.531V-105.68Zm25.3,8.65a19.359,19.359,0,0,1,7.191-7.082A21.268,21.268,0,0,1,135-106.653v12.759h-3.136q-7.245,0-10.975,3.676t-3.73,12.759V-46.1H104.833V-105.68H117.16ZM196.634-77.35A38.538,38.538,0,0,1,196.2-71.3H150.68a16.532,16.532,0,0,0,5.3,11.462,16.725,16.725,0,0,0,11.678,4.325q9.948,0,14.057-8.326h13.3a26.837,26.837,0,0,1-9.786,13.462q-7.082,5.244-17.571,5.244a30.428,30.428,0,0,1-15.3-3.839,27.311,27.311,0,0,1-10.6-10.813,32.985,32.985,0,0,1-3.839-16.165,33.759,33.759,0,0,1,3.73-16.165,26.235,26.235,0,0,1,10.488-10.759,31.214,31.214,0,0,1,15.516-3.784,30.344,30.344,0,0,1,15.03,3.676,25.978,25.978,0,0,1,10.272,10.326A31.1,31.1,0,0,1,196.634-77.35Zm-12.867-3.893A14.028,14.028,0,0,0,178.9-92.164a17.4,17.4,0,0,0-11.786-4.109,15.831,15.831,0,0,0-10.921,4.055,16.945,16.945,0,0,0-5.406,10.975Zm47.576,36.115A30.512,30.512,0,0,1,216.1-48.967a27.574,27.574,0,0,1-10.7-10.813A32.616,32.616,0,0,1,201.5-75.945a31.991,31.991,0,0,1,4-16.111,27.634,27.634,0,0,1,10.921-10.813,31.69,31.69,0,0,1,15.462-3.784,31.69,31.69,0,0,1,15.462,3.784,27.634,27.634,0,0,1,10.921,10.813,31.991,31.991,0,0,1,4,16.111,31.327,31.327,0,0,1-4.109,16.111,28.451,28.451,0,0,1-11.191,10.867A32.256,32.256,0,0,1,231.343-45.128Zm0-10.7a18.343,18.343,0,0,0,8.921-2.271,17.3,17.3,0,0,0,6.758-6.812,21.9,21.9,0,0,0,2.6-11.029A22.356,22.356,0,0,0,247.13-86.92a16.789,16.789,0,0,0-6.6-6.758,18.038,18.038,0,0,0-8.867-2.271,17.737,17.737,0,0,0-8.812,2.271,16.208,16.208,0,0,0-6.434,6.758,23.192,23.192,0,0,0-2.379,10.975q0,9.623,4.92,14.868A16.257,16.257,0,0,0,231.343-55.833Z" transform="translate(254.756 172.647)" fill="#262626"/>
  </g>
</svg>
